<?xml version="1.0" encoding="UTF-8"?>
<svg id="Layer_1" data-name="Layer 1" xmlns="http://www.w3.org/2000/svg" viewBox="0 0 141.73 141.73">
  <defs>
    <style>
      .cls-1 {
        fill: #231f20;
        fill-rule: evenodd;
      }

      .cls-2 {
        fill: #fff;
        stroke: #231f20;
        stroke-miterlimit: 10;
      }
    </style>
  </defs>
  <rect class="cls-2" x="-7.43" y="-8.82" width="155.86" height="161.51"/>
  <g>
    <polygon class="cls-1" points="109.06 49.3 103.32 59.24 97.58 69.17 86.11 69.17 74.64 69.17 68.91 59.24 63.17 49.3 68.91 39.37 74.64 29.44 86.11 29.44 97.58 29.44 103.32 39.37 109.06 49.3"/>
    <polygon class="cls-1" points="69.82 71.96 64.09 81.89 58.35 91.82 46.88 91.82 35.41 91.82 29.67 81.89 23.94 71.96 29.67 62.02 35.41 52.09 46.88 52.09 58.35 52.09 64.09 62.02 69.82 71.96"/>
    <polygon class="cls-1" points="109.06 94.61 103.32 104.54 97.58 114.48 86.11 114.48 74.64 114.48 68.91 104.54 63.17 94.61 68.91 84.67 74.64 74.74 86.11 74.74 97.58 74.74 103.32 84.67 109.06 94.61"/>
  </g>
</svg>