<?xml version="1.0" encoding="UTF-8"?>
<svg id="Layer_1" data-name="Layer 1" xmlns="http://www.w3.org/2000/svg" viewBox="0 0 552.36 128.1">
  <defs>
    <style>
      .cls-1 {
        fill: #231f20;
        fill-rule: evenodd;
      }
    </style>
  </defs>
  <g>
    <polygon class="cls-1" points="122.33 48.32 116.6 58.26 110.86 68.19 99.39 68.19 87.92 68.19 82.18 58.26 76.45 48.32 82.18 38.39 87.92 28.45 99.39 28.45 110.86 28.45 116.6 38.39 122.33 48.32"/>
    <polygon class="cls-1" points="83.1 70.97 77.36 80.91 71.63 90.84 60.16 90.84 48.68 90.84 42.95 80.91 37.21 70.97 42.95 61.04 48.68 51.11 60.16 51.11 71.63 51.11 77.36 61.04 83.1 70.97"/>
    <polygon class="cls-1" points="122.33 93.62 116.6 103.56 110.86 113.49 99.39 113.49 87.92 113.49 82.18 103.56 76.45 93.62 82.18 83.69 87.92 73.76 99.39 73.76 110.86 73.76 116.6 83.69 122.33 93.62"/>
  </g>
  <path class="cls-1" d="M140.18,30.04h-2.12c-.5,0-.94.03-1.32.08-.25.04-.37.26-.37.66,0,.3,0,.57-.02.78v.18h-.95v-2.41h11.46v2.41h-.94v-.18c-.03-.22-.04-.48-.04-.78,0-.4-.12-.62-.37-.66-.38-.05-.82-.08-1.31-.08h-2.12v10.19c0,.79.07,1.27.22,1.44.14.17.57.27,1.29.31h.39v.56h-5.66v-.55h.38c.71-.05,1.13-.15,1.27-.32.14-.17.21-.65.21-1.44v-10.19h0ZM151.01,34.67c.45-.68.97-1.19,1.56-1.52.59-.34,1.25-.51,1.98-.51.84,0,1.5.27,1.98.82.48.55.71,1.3.71,2.26v4.52c.04.88.11,1.38.21,1.49.1.11.53.2,1.29.25h.16v.56h-5.09v-.55h.16c.77-.06,1.2-.15,1.29-.26.09-.11.16-.61.21-1.49v-4.24c0-.83-.11-1.41-.33-1.73-.22-.33-.61-.49-1.18-.49-.4,0-.84.12-1.34.37-.49.25-1.03.62-1.62,1.12v4.97c0,.81.06,1.29.2,1.44.13.15.56.25,1.29.3h.17v.56h-5.09v-.55h.17c.72-.06,1.15-.16,1.29-.32.14-.16.2-.64.2-1.44v-9.47c0-.8-.07-1.28-.2-1.44-.13-.16-.56-.26-1.29-.31h-.17v-.56h3.43v6.21h0ZM167.73,42.09c-1.13.44-2.16.66-3.09.66-1.44,0-2.6-.48-3.5-1.44-.9-.96-1.35-2.2-1.35-3.72,0-1.45.4-2.64,1.21-3.56.81-.93,1.84-1.39,3.1-1.39,1.17,0,2.06.39,2.69,1.16.63.78.94,1.88.94,3.32v.17h-5.98c0,1.51.27,2.64.8,3.41.53.77,1.32,1.15,2.37,1.15,1.1,0,2.04-.22,2.81-.66v.89h0ZM161.81,36.74h4.04v-.39c0-1.12-.14-1.93-.43-2.42-.3-.5-.77-.75-1.44-.75s-1.19.32-1.59.97c-.39.64-.59,1.51-.59,2.59h0ZM135.95,55.41h10.78l8.88,20.63,9.09-20.63h9.68v1.98l-.41.02c-1.49.12-2.37.37-2.65.75-.28.39-.42,1.54-.42,3.46v19.45c0,1.92.15,3.08.44,3.47.29.4,1.16.64,2.62.74l.42.02v1.98h-12.62v-1.98l.41-.02c1.21-.07,1.94-.31,2.18-.71.24-.4.36-1.57.36-3.51v-18.95l-10,21.6h-2.21l-9.82-22.94v20.29c0,1.9.13,3.07.37,3.48.24.41.97.65,2.18.73l.39.02v1.98h-9.67v-1.98l.42-.02c1.46-.1,2.34-.35,2.63-.74.29-.39.43-1.55.43-3.47v-19.45c0-1.92-.14-3.07-.42-3.46-.28-.38-1.17-.63-2.64-.75l-.42-.02v-1.98h0ZM189.12,87.83c-3.86,0-6.9-1.1-9.11-3.3-2.21-2.21-3.32-5.22-3.32-9.05s1.11-6.84,3.32-9.05c2.21-2.2,5.25-3.3,9.11-3.3s6.87,1.1,9.08,3.3c2.21,2.21,3.32,5.22,3.32,9.05s-1.11,6.84-3.32,9.05c-2.21,2.2-5.24,3.3-9.08,3.3h0ZM189.12,85.58c1.76,0,3.08-.85,3.95-2.53.88-1.69,1.31-4.21,1.31-7.57s-.44-5.9-1.31-7.58c-.87-1.68-2.19-2.52-3.95-2.52s-3.09.84-3.98,2.52c-.88,1.68-1.32,4.2-1.32,7.58s.44,5.88,1.32,7.57c.88,1.68,2.21,2.53,3.98,2.53h0ZM205.25,86.19v-6.09h2.92l.02.39c.08,1.79.35,2.93.8,3.44,1.17,1.27,2.89,1.9,5.18,1.9,1.11,0,2.05-.35,2.82-1.06.77-.71,1.14-1.57,1.14-2.61,0-1.6-1.35-2.93-4.05-3.98l-1.98-.78c-4.57-1.79-6.86-4.2-6.86-7.25,0-2.15.88-3.86,2.65-5.13,1.77-1.27,4.15-1.9,7.16-1.9,2.38,0,4.87.37,7.45,1.1v5.65h-2.94l-.02-.41-.04-1.03c0-2.21-1.31-3.32-3.96-3.32-1.15,0-2.13.37-2.93,1.1-.8.73-1.2,1.62-1.2,2.69,0,.89.3,1.6.88,2.1.59.51,1.8,1.11,3.63,1.8l1.96.75c4.45,1.7,6.68,3.96,6.68,6.8,0,2.17-.94,3.95-2.83,5.36-1.89,1.4-4.28,2.11-7.18,2.11-3.6,0-6.69-.54-9.3-1.63h0ZM241.69,84.56c-1.14,1.09-2.31,1.9-3.51,2.45-1.2.54-2.41.82-3.66.82-2.12,0-3.87-.65-5.27-1.95-1.39-1.29-2.09-2.93-2.09-4.91,0-2.31.88-4.15,2.65-5.53,1.06-.83,2.32-1.4,3.77-1.73,1.45-.32,3.49-.49,6.14-.49h1.09v-2.87c0-2.03-.26-3.41-.78-4.15-.51-.73-1.47-1.1-2.88-1.1-1.69,0-2.97.45-3.83,1.35-.29.29-.48,1.24-.56,2.87l-.02.4h-3.52v-4.76c2.76-1.23,5.65-1.85,8.67-1.85s5.34.62,6.96,1.85c1.61,1.23,2.42,3.01,2.42,5.31v10.37c0,1.83.13,3.07.41,3.73.26.67.76,1.01,1.49,1.01.22,0,.47-.04.76-.11l.28,2c-1.11.36-2.21.54-3.28.54-1.18,0-2.2-.27-3.07-.82-.88-.54-1.59-1.36-2.16-2.45h0ZM240.8,82.99v-7.82h-.85c-2.15,0-3.76.43-4.84,1.28-1.08.85-1.62,2.13-1.62,3.84,0,1.26.34,2.26,1.03,3.02.69.75,1.61,1.12,2.78,1.12.65,0,1.26-.12,1.84-.37.58-.24,1.14-.6,1.66-1.07h0ZM261.63,63.66v17.38c0,1.94.15,3.11.45,3.51.29.4,1.17.65,2.62.75l.41.02v1.98h-13.42v-1.98l.42-.02c1.46-.1,2.34-.35,2.63-.75.29-.4.43-1.57.43-3.51v-11.11c0-1.94-.14-3.11-.43-3.51-.29-.4-1.17-.65-2.63-.75l-.42-.02v-1.98h9.94ZM255.16,59.69v-6.4h6.46v6.4h-6.46ZM287.45,86.72c-2.48.74-4.86,1.1-7.14,1.1-4.17,0-7.45-1.12-9.83-3.37-2.39-2.24-3.58-5.33-3.58-9.26s1.13-6.71,3.4-8.85c2.27-2.15,5.39-3.22,9.36-3.22,2.51,0,5.08.35,7.71,1.06v6.09h-3.08l-.02-.39c-.12-1.79-.33-2.88-.65-3.26-.82-1.01-2.07-1.51-3.77-1.51-2.04,0-3.57.82-4.58,2.46-1.02,1.64-1.53,4.09-1.53,7.37s.68,5.86,2.04,7.54c1.36,1.68,3.39,2.52,6.09,2.52,1.67,0,3.54-.41,5.6-1.24v2.96h0ZM304.44,55.41h10.78l8.88,20.63,9.09-20.63h9.68v1.98l-.41.02c-1.49.12-2.37.37-2.65.75-.28.39-.42,1.54-.42,3.46v19.45c0,1.92.15,3.08.44,3.47.29.4,1.16.64,2.62.74l.42.02v1.98h-12.62v-1.98l.41-.02c1.21-.07,1.94-.31,2.18-.71.24-.4.36-1.57.36-3.51v-18.95l-10,21.6h-2.21l-9.82-22.94v20.29c0,1.9.13,3.07.37,3.48.24.41.97.65,2.18.73l.39.02v1.98h-9.67v-1.98l.42-.02c1.46-.1,2.34-.35,2.63-.74.29-.39.43-1.55.43-3.47v-19.45c0-1.92-.14-3.07-.42-3.46-.28-.38-1.17-.63-2.64-.75l-.42-.02v-1.98h0ZM362.3,87.3v-4.51c-.97,1.68-2.14,2.94-3.5,3.79-1.36.84-2.92,1.26-4.67,1.26-2.13,0-3.8-.66-5.02-1.98-1.22-1.32-1.83-3.14-1.83-5.46v-10.47c0-1.94-.14-3.11-.43-3.51-.29-.4-1.17-.65-2.63-.75l-.42-.02v-1.98h9.94v15.95c0,1.65.22,2.78.65,3.4.43.62,1.2.93,2.32.93,1.03,0,2-.29,2.93-.88.93-.59,1.81-1.46,2.65-2.62v-10.53c0-1.94-.14-3.11-.43-3.51-.29-.4-1.17-.65-2.65-.75l-.39-.02v-1.98h9.94v17.38c0,1.94.15,3.11.45,3.51.29.4,1.17.65,2.62.75l.41.02v1.98h-9.94ZM375.35,86.19v-6.09h2.92l.02.39c.08,1.79.35,2.93.8,3.44,1.17,1.27,2.89,1.9,5.18,1.9,1.11,0,2.05-.35,2.82-1.06.77-.71,1.14-1.57,1.14-2.61,0-1.6-1.35-2.93-4.05-3.98l-1.98-.78c-4.57-1.79-6.86-4.2-6.86-7.25,0-2.15.88-3.86,2.64-5.13,1.77-1.27,4.15-1.9,7.16-1.9,2.38,0,4.87.37,7.45,1.1v5.65h-2.94l-.02-.41-.04-1.03c0-2.21-1.32-3.32-3.96-3.32-1.15,0-2.13.37-2.93,1.1-.8.73-1.2,1.62-1.2,2.69,0,.89.3,1.6.88,2.1.59.51,1.8,1.11,3.63,1.8l1.96.75c4.45,1.7,6.68,3.96,6.68,6.8,0,2.17-.94,3.95-2.83,5.36-1.89,1.4-4.28,2.11-7.18,2.11-3.6,0-6.69-.54-9.3-1.63h0ZM419.23,86.37c-2.84.97-5.61,1.46-8.31,1.46-4.08,0-7.3-1.13-9.67-3.4-2.37-2.27-3.56-5.34-3.56-9.23,0-3.59,1.07-6.49,3.21-8.73,2.14-2.23,4.93-3.34,8.36-3.34,6.64,0,9.96,4.04,9.96,12.1v.47h-14.93c0,2.98.71,5.22,2.11,6.71,1.41,1.49,3.52,2.24,6.34,2.24,1.92,0,4.08-.51,6.49-1.54v3.26h0ZM404.43,73.71h8.47v-.76c0-2.87-.29-4.89-.88-6.07-.58-1.18-1.59-1.77-3.02-1.77-1.52,0-2.66.71-3.43,2.15-.77,1.43-1.15,3.59-1.15,6.45h0ZM439.88,87.3v-4.51c-.97,1.68-2.14,2.94-3.5,3.79-1.36.84-2.92,1.26-4.67,1.26-2.13,0-3.8-.66-5.02-1.98-1.22-1.32-1.83-3.14-1.83-5.46v-10.47c0-1.94-.14-3.11-.43-3.51-.29-.4-1.17-.65-2.63-.75l-.42-.02v-1.98h9.94v15.95c0,1.65.22,2.78.65,3.4.43.62,1.2.93,2.32.93,1.03,0,2-.29,2.93-.88.93-.59,1.81-1.46,2.65-2.62v-10.53c0-1.94-.14-3.11-.43-3.51-.29-.4-1.17-.65-2.65-.75l-.39-.02v-1.98h9.94v17.38c0,1.94.15,3.11.45,3.51.29.4,1.17.65,2.62.75l.41.02v1.98h-9.94ZM460.87,68.13c1.17-1.67,2.45-2.92,3.83-3.75,1.37-.83,2.85-1.25,4.41-1.25,1.74,0,3.13.42,4.15,1.25,1.03.83,1.69,2.08,2,3.75,1.43-1.67,2.86-2.92,4.3-3.75,1.43-.83,2.88-1.25,4.32-1.25,4.22,0,6.33,2.26,6.33,6.77v11.14c0,1.94.15,3.11.44,3.51.29.4,1.17.65,2.65.75l.39.02v1.98h-12.62v-1.98l.41-.02c1.21-.07,1.94-.32,2.18-.73s.36-1.59.36-3.53v-9.7c0-2.88-.93-4.32-2.79-4.32-1.05,0-2.04.31-2.99.93-.94.62-1.84,1.55-2.68,2.81v10.28c0,1.93.13,3.09.37,3.52.25.42.97.66,2.18.73l.39.02v1.98h-12.08v-1.98l.41-.02c1.21-.07,1.94-.31,2.18-.71.24-.41.36-1.59.36-3.54v-9.69c0-1.45-.23-2.53-.7-3.25-.46-.73-1.17-1.09-2.11-1.09-1.08,0-2.08.3-3.02.91-.94.61-1.83,1.54-2.64,2.77v10.34c0,1.93.13,3.09.38,3.52.25.42.97.66,2.15.73l.41.02v1.98h-12.62v-1.98l.42-.02c1.46-.1,2.34-.35,2.63-.75.29-.4.43-1.57.43-3.51v-11.11c0-1.94-.14-3.11-.43-3.51-.29-.4-1.17-.65-2.63-.75l-.42-.02v-1.98h9.67v4.47h0ZM140.57,113.49c-1.44,0-2.58-.45-3.42-1.36-.83-.9-1.25-2.14-1.25-3.7s.42-2.79,1.25-3.7c.84-.9,1.97-1.35,3.42-1.35s2.59.45,3.42,1.35c.83.9,1.25,2.14,1.25,3.7s-.42,2.8-1.25,3.7c-.84.91-1.97,1.36-3.42,1.36h0ZM140.57,112.95c.8,0,1.46-.43,2-1.28.53-.85.79-1.93.79-3.23s-.26-2.36-.79-3.22c-.53-.86-1.2-1.29-2-1.29s-1.46.43-1.99,1.29c-.53.86-.79,1.93-.79,3.22s.26,2.38.79,3.23c.53.85,1.19,1.28,1.99,1.28h0ZM148.37,104.36h-1.44v-.77h1.44v-.46c0-1.47.24-2.53.72-3.18.48-.65,1.26-.98,2.34-.98.83,0,1.62.22,2.38.66v2.1h-1.13v-.17c-.03-.36-.04-.63-.04-.83,0-.79-.43-1.19-1.29-1.19-.47,0-.8.17-.97.52-.17.35-.25,1.02-.25,2v1.53h2.45v.71h-2.45v6.66c0,.8.07,1.28.22,1.44.15.16.62.26,1.4.3h.28v.56h-5.33v-.55h.17c.72-.06,1.15-.16,1.29-.32.14-.16.2-.64.2-1.44v-6.61h0ZM162.55,109.2l-.75,1.76c-.3.69-.44,1.15-.44,1.39,0,.25.39.38,1.16.38h.14v.55h-3.46v-.55h.19c.52-.03.82-.1.92-.2.1-.1.35-.62.75-1.56l4.71-11.05h.62l4.67,11.12c.37.8.62,1.27.77,1.42.15.15.45.24.89.26h.21v.56h-4.94v-.55h.16c.84,0,1.26-.12,1.26-.36,0-.35-.13-.82-.38-1.41l-.75-1.76h-5.73ZM162.86,108.47h5.11l-2.54-6-2.56,6h0ZM176.69,106.26v4.71c0,.8.07,1.28.21,1.44.14.16.58.26,1.3.3h.39v.56h-5.33v-.55h.17c.72-.06,1.15-.16,1.29-.32.14-.16.2-.64.2-1.44v-5.07c0-.8-.07-1.28-.2-1.43-.13-.15-.56-.26-1.29-.31h-.17v-.56h3.43v1.83c.81-1.36,1.87-2.04,3.18-2.04.18,0,.38.03.6.09v2.65h-1v-.16c-.07-.55-.13-.88-.18-.98-.05-.1-.19-.16-.41-.16-.89,0-1.62.48-2.19,1.44h0ZM187.54,113.22c-.45.18-.88.27-1.29.27-1.04,0-1.8-.26-2.28-.77-.48-.52-.72-1.34-.72-2.46v-5.93h-1.44v-.73h1.44v-1.75l1.77-.44v2.19h2.73v.73h-2.73v6.16c0,.83.11,1.42.34,1.77.22.35.6.53,1.14.53.29,0,.63-.09,1.03-.27v.71Z"/>
</svg>